<svg width="274" height="274" viewBox="0 0 274 274" fill="none" xmlns="http://www.w3.org/2000/svg">
<path d="M153.26 72.9174L153.687 74.7217L154.96 73.373L203.333 22.1086L183.123 89.6327L182.591 91.4091L184.367 90.8774L251.891 70.6674L200.627 119.04L199.278 120.313L201.083 120.74L269.665 137L201.083 153.26L199.278 153.687L200.627 154.96L251.891 203.333L184.367 183.123L182.591 182.591L183.123 184.367L203.333 251.891L154.96 200.627L153.687 199.278L153.26 201.083L137 269.665L120.74 201.083L120.313 199.278L119.04 200.627L70.6674 251.891L90.8774 184.367L91.4091 182.591L89.6327 183.123L22.1086 203.333L73.373 154.96L74.7217 153.687L72.9174 153.26L4.33485 137L72.9174 120.74L74.7217 120.313L73.373 119.04L22.1086 70.6674L89.6327 90.8774L91.4091 91.4091L90.8774 89.6327L70.6674 22.1086L119.04 73.373L120.313 74.7217L120.74 72.9174L137 4.33485L153.26 72.9174Z" fill="#F2CC8F" stroke="black" stroke-width="2"/>
</svg>
