<svg width="137" height="137" viewBox="0 0 137 137" fill="none" xmlns="http://www.w3.org/2000/svg">
<path d="M68.9542 0.922773L72.8166 54.6784C72.9025 55.8736 74.3152 56.4588 75.221 55.6744L115.963 20.3945C116.39 20.0245 116.975 20.6097 116.606 21.0369L81.3256 61.779C80.5412 62.6848 81.1264 64.0975 82.3216 64.1834L136.077 68.0457C136.641 68.0863 136.641 68.9137 136.077 68.9542L82.3216 72.8166C81.1264 72.9025 80.5412 74.3152 81.3256 75.221L116.606 115.963C116.976 116.39 116.39 116.975 115.963 116.606L75.221 81.3256C74.3152 80.5412 72.9025 81.1264 72.8166 82.3216L68.9542 136.077C68.9137 136.641 68.0863 136.641 68.0458 136.077L64.1834 82.3216C64.0975 81.1264 62.6848 80.5412 61.779 81.3256L21.0369 116.606C20.6096 116.976 20.0245 116.39 20.3945 115.963L55.6744 75.221C56.4588 74.3152 55.8736 72.9025 54.6784 72.8166L0.92279 68.9542C0.358993 68.9137 0.359153 68.0863 0.922773 68.0458L54.6784 64.1834C55.8736 64.0975 56.4588 62.6848 55.6744 61.779L20.3945 21.0369C20.0245 20.6096 20.6097 20.0246 21.0369 20.3945L61.779 55.6744C62.6848 56.4588 64.0975 55.8736 64.1834 54.6784L68.0457 0.92279C68.0863 0.358993 68.9137 0.359153 68.9542 0.922773Z" fill="#81B29A" stroke="black"/>
</svg>
