<svg width="216" height="137" viewBox="0 0 216 137" fill="none" xmlns="http://www.w3.org/2000/svg">
<path d="M11.2607 113.968C11.2607 113.344 11.4304 112.928 11.6002 112.512C12.2793 110.849 13.977 110.433 15.1653 111.265L42.3281 129.563L70.849 110.433L99.3699 129.355L127.891 110.225L156.412 129.355L184.933 110.225L214.642 130.187C216 131.019 216.34 133.098 215.66 134.554C214.981 136.217 213.284 136.633 212.095 135.801L184.933 117.503L156.412 136.633L127.891 117.503L99.3699 136.633L70.849 117.503L42.3281 136.633L12.6188 116.879C11.6002 116.255 11.2607 115.216 11.2607 113.968Z" fill="#9D9D9D"/>
<path d="M11.2607 85.2727C11.2607 84.6489 11.4304 84.233 11.6002 83.8172C12.2793 82.1537 13.977 81.7378 15.1653 82.5695L42.3281 100.868L70.849 81.7378L99.3699 100.868L127.891 81.7378L156.412 100.868L184.933 81.7378L214.642 101.7C216 102.532 216.34 104.611 215.66 106.066C214.981 107.73 213.284 108.146 212.095 107.314L184.933 89.0156L156.412 108.146L127.891 89.0156L99.3699 108.146L70.849 89.0156L42.3281 108.146L12.6188 88.1839C11.6002 87.56 11.2607 86.5204 11.2607 85.2727Z" fill="#9D9D9D"/>
<path d="M11.2607 56.5774C11.2607 55.9536 11.4304 55.5377 11.6002 55.1219C12.2793 53.4584 13.977 53.0425 15.1653 53.8742L42.3281 72.1727L70.849 53.0425L99.3699 72.1727L127.891 53.0425L156.412 72.1727L184.933 53.0425L214.642 73.0045C216 73.8362 216.34 75.9156 215.66 77.3712C214.981 79.0347 213.284 79.4505 212.095 78.6188L184.933 60.3203L156.412 79.4505L127.891 60.3203L99.3699 79.4505L70.849 60.3203L42.3281 79.4505L12.6188 59.4885C11.6002 58.8647 11.2607 57.825 11.2607 56.5774Z" fill="#9D9D9D"/>
<path d="M11.2607 27.8819C11.2607 27.258 11.4304 26.8422 11.6002 26.4263C12.2793 24.7628 13.977 24.3469 15.1653 25.1787L42.3281 43.4772L70.849 24.3469L99.3699 43.4772L127.891 24.3469L156.412 43.4772L184.933 24.3469L214.642 44.3089C216 45.1407 216.34 47.22 215.66 48.6756C214.981 50.3391 213.284 50.755 212.095 49.9232L184.933 31.6247L156.412 50.755L127.891 31.6247L99.3699 50.755L70.849 31.6247L42.3281 50.755L12.6188 30.793C11.6002 30.1692 11.2607 29.1295 11.2607 27.8819Z" fill="#9D9D9D"/>
<path d="M-3 89.6392C-3 89.0154 -2.83023 88.5995 -2.66046 88.1836C-1.9814 86.5201 -0.283725 86.1043 0.904645 86.936L28.0674 105.235L56.5883 86.1042L85.1092 105.235L113.63 86.1042L142.151 105.235L170.672 86.1042L200.381 106.066C201.739 106.898 202.079 108.977 201.4 110.433C200.721 112.096 199.023 112.512 197.835 111.681L170.672 93.3821L142.151 112.512L113.63 93.3821L85.1092 112.512L56.5883 93.3821L28.0674 112.512L-1.64186 92.5503C-2.4907 91.9265 -3 90.6789 -3 89.6392Z" fill="#3D405B"/>
<path d="M-3 60.9441C-3 60.3203 -2.83023 59.9044 -2.66046 59.4886C-1.9814 57.8251 -0.283725 57.4092 0.904645 58.2409L28.0674 76.5394L56.5883 57.4092L85.1092 76.5394L113.63 57.4092L142.151 76.5394L170.672 57.4092L200.381 77.3712C201.739 78.2029 202.079 80.2823 201.4 81.7379C200.721 83.4014 199.023 83.8172 197.835 82.9855L170.672 64.687L142.151 83.8172L113.63 64.687L85.1092 83.8172L56.5883 64.687L28.0674 83.8172L-1.64186 63.8552C-2.4907 63.2314 -3 62.1917 -3 60.9441Z" fill="#3D405B"/>
<path d="M-3 32.2488C-3 31.625 -2.83023 31.2091 -2.66046 30.7932C-1.9814 29.1297 -0.283725 28.7139 0.904645 29.5456L28.0674 47.8441L56.5883 28.7139L85.1092 47.8441L113.63 28.7139L142.151 47.8441L170.672 28.7139L200.381 48.6759C201.739 49.5076 202.079 51.587 201.4 53.0426C200.721 54.7061 199.023 55.1219 197.835 54.2902L170.672 35.9917L142.151 55.1219L113.63 35.9917L85.1092 55.1219L56.5883 35.9917L28.0674 55.1219L-1.64186 35.1599C-2.4907 34.5361 -3 33.4964 -3 32.2488Z" fill="#3D405B"/>
<path d="M-3 3.55324C-3 2.92943 -2.83023 2.51356 -2.66046 2.09769C-1.9814 0.434185 -0.283725 0.0182978 0.904645 0.850048L28.0674 19.1486L56.5883 0.0183105L85.1092 19.1486L113.63 0.0183105L142.151 19.1486L170.672 0.0183105L200.381 19.9803C201.739 20.8121 202.079 22.8914 201.4 24.347C200.721 26.0105 199.023 26.4264 197.835 25.5946L170.672 7.29612L142.151 26.4264L113.63 7.29612L85.1092 26.4264L56.5883 7.29612L28.0674 26.4264L-1.64186 6.46437C-2.4907 5.84056 -3 4.80087 -3 3.55324Z" fill="#3D405B"/>
</svg>
