<svg width="102" height="219" viewBox="0 0 102 219" fill="none" xmlns="http://www.w3.org/2000/svg">
<path d="M101.326 68.343C101.326 65.8887 99.4372 63.8119 97.2046 63.8119C94.972 63.8119 93.0829 65.8887 93.0829 68.343C93.0829 70.7973 94.972 72.874 97.2046 72.874C99.4372 72.874 101.326 70.7973 101.326 68.343Z" fill="#9D9D9D"/>
<path d="M101.326 47.3871C101.326 44.9328 99.4372 42.8561 97.2046 42.8561C94.972 42.8561 93.0829 44.9328 93.0829 47.3871C93.0829 49.8414 94.972 51.9181 97.2046 51.9181C99.4372 52.1069 101.326 50.0302 101.326 47.3871Z" fill="#9D9D9D"/>
<path d="M101.326 26.6194C101.326 24.1651 99.4372 22.0884 97.2046 22.0884C94.972 22.0884 93.0829 24.1651 93.0829 26.6194C93.0829 29.0737 94.972 31.1504 97.2046 31.1504C99.4372 31.1504 101.326 29.0737 101.326 26.6194Z" fill="#9D9D9D"/>
<path d="M81.5764 68.343C81.5764 65.8887 79.6872 63.8119 77.4546 63.8119C75.222 63.8119 73.3329 65.8887 73.3329 68.343C73.3329 70.7973 75.222 72.874 77.4546 72.874C79.6872 72.874 81.5764 70.7973 81.5764 68.343Z" fill="#9D9D9D"/>
<path d="M81.5764 47.3871C81.5764 44.9328 79.6872 42.8561 77.4546 42.8561C75.222 42.8561 73.3329 44.9328 73.3329 47.3871C73.3329 49.8414 75.222 51.9181 77.4546 51.9181C79.6872 51.9181 81.5764 50.0302 81.5764 47.3871Z" fill="#9D9D9D"/>
<path d="M81.5764 26.6194C81.5764 24.1651 79.6872 22.0884 77.4546 22.0884C75.222 22.0884 73.3329 24.1651 73.3329 26.6194C73.3329 29.0737 75.222 31.1504 77.4546 31.1504C79.6872 31.1504 81.5764 29.0737 81.5764 26.6194Z" fill="#9D9D9D"/>
<path d="M57.7046 72.874C59.9809 72.874 61.8263 70.8454 61.8263 68.343C61.8263 65.8406 59.9809 63.8119 57.7046 63.8119C55.4282 63.8119 53.5828 65.8406 53.5828 68.343C53.5828 70.8454 55.4282 72.874 57.7046 72.874Z" fill="#9D9D9D"/>
<path d="M57.7046 51.9181C59.9809 51.9181 61.8263 49.8895 61.8263 47.3871C61.8263 44.8847 59.9809 42.8561 57.7046 42.8561C55.4282 42.8561 53.5828 44.8847 53.5828 47.3871C53.5828 49.8895 55.4282 51.9181 57.7046 51.9181Z" fill="#9D9D9D"/>
<path d="M57.7046 31.1504C59.9809 31.1504 61.8263 29.1218 61.8263 26.6194C61.8263 24.117 59.9809 22.0884 57.7046 22.0884C55.4282 22.0884 53.5828 24.117 53.5828 26.6194C53.5828 29.1218 55.4282 31.1504 57.7046 31.1504Z" fill="#9D9D9D"/>
<path d="M42.2479 68.343C42.2479 65.8887 40.3588 63.8119 38.1262 63.8119C35.8936 63.8119 34.0045 65.8887 34.0045 68.343C34.0045 70.7973 35.8936 72.874 38.1262 72.874C40.3588 72.874 42.2479 70.7973 42.2479 68.343Z" fill="#9D9D9D"/>
<path d="M42.2479 47.3871C42.2479 44.9328 40.3588 42.8561 38.1262 42.8561C35.8936 42.8561 34.0045 44.9328 34.0045 47.3871C34.0045 49.8414 35.8936 51.9181 38.1262 51.9181C40.3588 51.9181 42.2479 50.0302 42.2479 47.3871Z" fill="#9D9D9D"/>
<path d="M42.2479 26.6194C42.2479 24.1651 40.3588 22.0884 38.1262 22.0884C35.8936 22.0884 34.0045 24.1651 34.0045 26.6194C34.0045 29.0737 35.8936 31.1504 38.1262 31.1504C40.3588 31.1504 42.2479 29.0737 42.2479 26.6194Z" fill="#9D9D9D"/>
<path d="M22.4979 68.343C22.4979 65.8887 20.6088 63.8119 18.3762 63.8119C16.1436 63.8119 14.2545 65.8887 14.2545 68.343C14.2545 70.7973 16.1436 72.874 18.3762 72.874C20.6088 72.874 22.4979 70.7973 22.4979 68.343Z" fill="#9D9D9D"/>
<path d="M22.4979 47.3871C22.4979 44.9328 20.6088 42.8561 18.3762 42.8561C16.1436 42.8561 14.2545 44.9328 14.2545 47.3871C14.2545 49.8414 16.1436 51.9181 18.3762 51.9181C20.6088 52.1069 22.4979 50.0302 22.4979 47.3871Z" fill="#9D9D9D"/>
<path d="M22.4979 26.6196C22.4979 24.1653 20.6088 22.0886 18.3762 22.0886C16.1436 22.0886 14.2545 24.1653 14.2545 26.6196C14.2545 29.0739 16.1436 31.1506 18.3762 31.1506C20.6088 31.1506 22.4979 29.0739 22.4979 26.6196Z" fill="#9D9D9D"/>
<path d="M92.9111 214.469C92.9111 216.923 94.8002 219 97.0329 219C99.2655 219 101.155 216.923 101.155 214.469C101.155 212.015 99.2655 209.938 97.0329 209.938C94.8002 209.938 92.9111 211.826 92.9111 214.469Z" fill="#9D9D9D"/>
<path d="M101.326 193.513C101.326 191.059 99.4372 188.982 97.2046 188.982C94.972 188.982 93.0829 191.059 93.0829 193.513C93.0829 195.967 94.972 198.044 97.2046 198.044C99.4372 198.044 101.326 196.156 101.326 193.513Z" fill="#9D9D9D"/>
<path d="M101.326 172.746C101.326 170.291 99.4372 168.215 97.2046 168.215C94.972 168.215 93.0829 170.291 93.0829 172.746C93.0829 175.2 94.972 177.277 97.2046 177.277C99.4372 177.277 101.326 175.2 101.326 172.746Z" fill="#9D9D9D"/>
<path d="M101.326 151.79C101.326 149.335 99.4372 147.259 97.2046 147.259C94.972 147.259 93.0829 149.335 93.0829 151.79C93.0829 154.244 94.972 156.321 97.2046 156.321C99.4372 156.321 101.326 154.433 101.326 151.79Z" fill="#9D9D9D"/>
<path d="M101.326 131.022C101.326 128.568 99.4372 126.491 97.2046 126.491C94.972 126.491 93.0829 128.568 93.0829 131.022C93.0829 133.477 94.972 135.553 97.2046 135.553C99.4372 135.553 101.326 133.477 101.326 131.022Z" fill="#9D9D9D"/>
<path d="M101.326 110.066C101.326 107.612 99.4372 105.535 97.2046 105.535C94.972 105.535 93.0829 107.612 93.0829 110.066C93.0829 112.521 94.972 114.597 97.2046 114.597C99.4372 114.597 101.326 112.521 101.326 110.066Z" fill="#9D9D9D"/>
<path d="M101.326 89.1102C101.326 86.6559 99.4372 84.5791 97.2046 84.5791C94.972 84.5791 93.0829 86.6559 93.0829 89.1102C93.0829 91.5645 94.972 93.6412 97.2046 93.6412C99.4372 93.83 101.326 91.7533 101.326 89.1102Z" fill="#9D9D9D"/>
<path d="M81.5764 214.469C81.5764 212.015 79.6872 209.938 77.4546 209.938C75.222 209.938 73.3329 212.015 73.3329 214.469C73.3329 216.923 75.222 219 77.4546 219C79.6872 219 81.5764 216.923 81.5764 214.469Z" fill="#9D9D9D"/>
<path d="M81.5764 193.513C81.5764 191.059 79.6872 188.982 77.4546 188.982C75.222 188.982 73.3329 191.059 73.3329 193.513C73.3329 195.967 75.222 198.044 77.4546 198.044C79.6872 198.044 81.5764 196.156 81.5764 193.513Z" fill="#9D9D9D"/>
<path d="M81.5764 172.746C81.5764 170.291 79.6872 168.215 77.4546 168.215C75.222 168.215 73.3329 170.291 73.3329 172.746C73.3329 175.2 75.222 177.277 77.4546 177.277C79.6872 177.277 81.5764 175.2 81.5764 172.746Z" fill="#9D9D9D"/>
<path d="M81.5764 151.79C81.5764 149.335 79.6872 147.259 77.4546 147.259C75.222 147.259 73.3329 149.335 73.3329 151.79C73.3329 154.244 75.222 156.321 77.4546 156.321C79.6872 156.321 81.5764 154.433 81.5764 151.79Z" fill="#9D9D9D"/>
<path d="M81.5764 131.022C81.5764 128.568 79.6872 126.491 77.4546 126.491C75.222 126.491 73.3329 128.568 73.3329 131.022C73.3329 133.477 75.222 135.553 77.4546 135.553C79.6872 135.553 81.5764 133.477 81.5764 131.022Z" fill="#9D9D9D"/>
<path d="M81.5764 110.066C81.5764 107.612 79.6872 105.535 77.4546 105.535C75.222 105.535 73.3329 107.612 73.3329 110.066C73.3329 112.521 75.222 114.597 77.4546 114.597C79.6872 114.597 81.5764 112.521 81.5764 110.066Z" fill="#9D9D9D"/>
<path d="M81.5764 89.1102C81.5764 86.6559 79.6872 84.5791 77.4546 84.5791C75.222 84.5791 73.3329 86.6559 73.3329 89.1102C73.3329 91.5645 75.222 93.6412 77.4546 93.6412C79.6872 93.6412 81.5764 91.7533 81.5764 89.1102Z" fill="#9D9D9D"/>
<path d="M61.8263 214.469C61.8263 212.015 59.9372 209.938 57.7046 209.938C55.4719 209.938 53.5828 212.015 53.5828 214.469C53.5828 216.923 55.4719 219 57.7046 219C59.9372 219 61.8263 216.923 61.8263 214.469Z" fill="#9D9D9D"/>
<path d="M61.8263 193.513C61.8263 191.059 59.9372 188.982 57.7046 188.982C55.4719 188.982 53.5828 191.059 53.5828 193.513C53.5828 195.967 55.4719 198.044 57.7046 198.044C59.9372 198.044 61.8263 196.156 61.8263 193.513Z" fill="#9D9D9D"/>
<path d="M61.8263 172.746C61.8263 170.291 59.9372 168.215 57.7046 168.215C55.4719 168.215 53.5828 170.291 53.5828 172.746C53.5828 175.2 55.4719 177.277 57.7046 177.277C59.9372 177.277 61.8263 175.2 61.8263 172.746Z" fill="#9D9D9D"/>
<path d="M61.8263 151.79C61.8263 149.335 59.9372 147.259 57.7046 147.259C55.4719 147.259 53.5828 149.335 53.5828 151.79C53.5828 154.244 55.4719 156.321 57.7046 156.321C59.9372 156.321 61.8263 154.433 61.8263 151.79Z" fill="#9D9D9D"/>
<path d="M57.7046 135.553C59.9809 135.553 61.8263 133.525 61.8263 131.022C61.8263 128.52 59.9809 126.491 57.7046 126.491C55.4282 126.491 53.5828 128.52 53.5828 131.022C53.5828 133.525 55.4282 135.553 57.7046 135.553Z" fill="#9D9D9D"/>
<path d="M61.8263 110.066C61.8263 107.612 59.9372 105.535 57.7046 105.535C55.4719 105.535 53.5828 107.612 53.5828 110.066C53.5828 112.521 55.4719 114.597 57.7046 114.597C59.9372 114.597 61.8263 112.521 61.8263 110.066Z" fill="#9D9D9D"/>
<path d="M61.8263 89.1102C61.8263 86.6559 59.9372 84.5791 57.7046 84.5791C55.4719 84.5791 53.5828 86.6559 53.5828 89.1102C53.5828 91.5645 55.4719 93.6412 57.7046 93.6412C59.9372 93.83 61.8263 91.7533 61.8263 89.1102Z" fill="#9D9D9D"/>
<path d="M42.2479 214.469C42.2479 212.015 40.3588 209.938 38.1262 209.938C35.8936 209.938 34.0045 212.015 34.0045 214.469C34.0045 216.923 35.8936 219 38.1262 219C40.3588 219 42.2479 216.923 42.2479 214.469Z" fill="#9D9D9D"/>
<path d="M42.2479 193.513C42.2479 191.059 40.3588 188.982 38.1262 188.982C35.8936 188.982 34.0045 191.059 34.0045 193.513C34.0045 195.967 35.8936 198.044 38.1262 198.044C40.3588 198.044 42.2479 196.156 42.2479 193.513Z" fill="#9D9D9D"/>
<path d="M42.2479 172.746C42.2479 170.291 40.3588 168.215 38.1262 168.215C35.8936 168.215 34.0045 170.291 34.0045 172.746C34.0045 175.2 35.8936 177.277 38.1262 177.277C40.3588 177.277 42.2479 175.2 42.2479 172.746Z" fill="#9D9D9D"/>
<path d="M42.2479 151.79C42.2479 149.335 40.3588 147.259 38.1262 147.259C35.8936 147.259 34.0045 149.335 34.0045 151.79C34.0045 154.244 35.8936 156.321 38.1262 156.321C40.3588 156.321 42.2479 154.433 42.2479 151.79Z" fill="#9D9D9D"/>
<path d="M42.2479 131.022C42.2479 128.568 40.3588 126.491 38.1262 126.491C35.8936 126.491 34.0045 128.568 34.0045 131.022C34.0045 133.477 35.8936 135.553 38.1262 135.553C40.3588 135.553 42.2479 133.477 42.2479 131.022Z" fill="#9D9D9D"/>
<path d="M42.2479 110.066C42.2479 107.612 40.3588 105.535 38.1262 105.535C35.8936 105.535 34.0045 107.612 34.0045 110.066C34.0045 112.521 35.8936 114.597 38.1262 114.597C40.3588 114.597 42.2479 112.521 42.2479 110.066Z" fill="#9D9D9D"/>
<path d="M42.2479 89.1102C42.2479 86.6559 40.3588 84.5791 38.1262 84.5791C35.8936 84.5791 34.0045 86.6559 34.0045 89.1102C34.0045 91.5645 35.8936 93.6412 38.1262 93.6412C40.3588 93.6412 42.2479 91.7533 42.2479 89.1102Z" fill="#9D9D9D"/>
<path d="M22.4979 214.469C22.4979 212.015 20.6088 209.938 18.3762 209.938C16.1436 209.938 14.2545 212.015 14.2545 214.469C14.2545 216.923 16.1436 219 18.3762 219C20.6088 219 22.4979 216.923 22.4979 214.469Z" fill="#9D9D9D"/>
<path d="M22.4979 193.513C22.4979 191.059 20.6088 188.982 18.3762 188.982C16.1436 188.982 14.2545 191.059 14.2545 193.513C14.2545 195.967 16.1436 198.044 18.3762 198.044C20.6088 198.044 22.4979 196.156 22.4979 193.513Z" fill="#9D9D9D"/>
<path d="M22.4979 172.746C22.4979 170.291 20.6088 168.215 18.3762 168.215C16.1436 168.215 14.2545 170.291 14.2545 172.746C14.2545 175.2 16.1436 177.277 18.3762 177.277C20.6088 177.277 22.4979 175.2 22.4979 172.746Z" fill="#9D9D9D"/>
<path d="M22.4979 151.79C22.4979 149.335 20.6088 147.259 18.3762 147.259C16.1436 147.259 14.2545 149.335 14.2545 151.79C14.2545 154.244 16.1436 156.321 18.3762 156.321C20.6088 156.321 22.4979 154.433 22.4979 151.79Z" fill="#9D9D9D"/>
<path d="M22.4979 131.022C22.4979 128.568 20.6088 126.491 18.3762 126.491C16.1436 126.491 14.2545 128.568 14.2545 131.022C14.2545 133.477 16.1436 135.553 18.3762 135.553C20.6088 135.553 22.4979 133.477 22.4979 131.022Z" fill="#9D9D9D"/>
<path d="M22.4979 110.066C22.4979 107.612 20.6088 105.535 18.3762 105.535C16.1436 105.535 14.2545 107.612 14.2545 110.066C14.2545 112.521 16.1436 114.597 18.3762 114.597C20.6088 114.597 22.4979 112.521 22.4979 110.066Z" fill="#9D9D9D"/>
<path d="M22.4979 89.1102C22.4979 86.6559 20.6088 84.5791 18.3762 84.5791C16.1436 84.5791 14.2545 86.6559 14.2545 89.1102C14.2545 91.5645 16.1436 93.6412 18.3762 93.6412C20.6088 93.83 22.4979 91.7533 22.4979 89.1102Z" fill="#9D9D9D"/>
<path d="M86.9001 46.2543C86.9001 43.8 85.011 41.7233 82.7784 41.7233C80.5457 41.7233 78.6566 43.8 78.6566 46.2543C78.6566 48.7086 80.5457 50.7853 82.7784 50.7853C85.011 50.7853 86.9001 48.7086 86.9001 46.2543Z" fill="#3D405B"/>
<path d="M86.9001 25.2985C86.9001 22.8442 85.011 20.7675 82.7784 20.7675C80.5457 20.7675 78.6566 22.8442 78.6566 25.2985C78.6566 27.7529 80.5457 29.8296 82.7784 29.8296C85.011 29.8296 86.9001 27.9417 86.9001 25.2985Z" fill="#3D405B"/>
<path d="M86.9001 4.53103C86.9001 2.07672 85.011 0 82.7784 0C80.5457 0 78.6566 2.07672 78.6566 4.53103C78.6566 6.98534 80.5457 9.06206 82.7784 9.06206C85.011 9.06206 86.9001 6.98534 86.9001 4.53103Z" fill="#3D405B"/>
<path d="M67.15 46.2543C67.15 43.8 65.2609 41.7233 63.0283 41.7233C60.7957 41.7233 58.9066 43.8 58.9066 46.2543C58.9066 48.7086 60.7957 50.7853 63.0283 50.7853C65.2609 50.7853 67.15 48.7086 67.15 46.2543Z" fill="#3D405B"/>
<path d="M67.15 25.2985C67.15 22.8442 65.2609 20.7675 63.0283 20.7675C60.7957 20.7675 58.9066 22.8442 58.9066 25.2985C58.9066 27.7529 60.7957 29.8296 63.0283 29.8296C65.2609 29.8296 67.15 27.9417 67.15 25.2985Z" fill="#3D405B"/>
<path d="M67.15 4.53103C67.15 2.07672 65.2609 0 63.0283 0C60.7957 0 58.9066 2.07672 58.9066 4.53103C58.9066 6.98534 60.7957 9.06206 63.0283 9.06206C65.2609 9.06206 67.15 6.98534 67.15 4.53103Z" fill="#3D405B"/>
<path d="M47.5718 46.2543C47.5718 43.8 45.6827 41.7233 43.4501 41.7233C41.2175 41.7233 39.3284 43.8 39.3284 46.2543C39.3284 48.7086 41.2175 50.7853 43.4501 50.7853C45.6827 50.7853 47.5718 48.7086 47.5718 46.2543Z" fill="#3D405B"/>
<path d="M47.5718 25.2985C47.5718 22.8442 45.6827 20.7675 43.4501 20.7675C41.2175 20.7675 39.3284 22.8442 39.3284 25.2985C39.3284 27.7529 41.2175 29.8296 43.4501 29.8296C45.6827 29.8296 47.5718 27.9417 47.5718 25.2985Z" fill="#3D405B"/>
<path d="M47.5718 4.53103C47.5718 2.07672 45.6827 0 43.4501 0C41.2175 0 39.3284 2.07672 39.3284 4.53103C39.3284 6.98534 41.2175 9.06206 43.4501 9.06206C45.6827 9.06206 47.5718 6.98534 47.5718 4.53103Z" fill="#3D405B"/>
<path d="M27.8218 46.2543C27.8218 43.8 25.9327 41.7233 23.7001 41.7233C21.4675 41.7233 19.5784 43.8 19.5784 46.2543C19.5784 48.7086 21.4675 50.7853 23.7001 50.7853C25.9327 50.7853 27.8218 48.7086 27.8218 46.2543Z" fill="#3D405B"/>
<path d="M27.8218 25.2985C27.8218 22.8442 25.9327 20.7675 23.7001 20.7675C21.4675 20.7675 19.5784 22.8442 19.5784 25.2985C19.5784 27.7529 21.4675 29.8296 23.7001 29.8296C25.9327 29.8296 27.8218 27.9417 27.8218 25.2985Z" fill="#3D405B"/>
<path d="M27.8218 4.53103C27.8218 2.07672 25.9327 0 23.7001 0C21.4675 0 19.5784 2.07672 19.5784 4.53103C19.5784 6.98534 21.4675 9.06206 23.7001 9.06206C25.9327 9.06206 27.8218 6.98534 27.8218 4.53103Z" fill="#3D405B"/>
<path d="M8.24347 46.2543C8.24347 43.8 6.35435 41.7233 4.12174 41.7233C1.88912 41.7233 0 43.8 0 46.2543C0 48.7086 1.88912 50.7853 4.12174 50.7853C6.35435 50.7853 8.24347 48.7086 8.24347 46.2543Z" fill="#3D405B"/>
<path d="M8.24347 25.2985C8.24347 22.8442 6.35435 20.7675 4.12174 20.7675C1.88912 20.7675 0 22.8442 0 25.2985C0 27.7529 1.88912 29.8296 4.12174 29.8296C6.35435 29.8296 8.24347 27.9417 8.24347 25.2985Z" fill="#3D405B"/>
<path d="M8.24347 4.53103C8.24347 2.07672 6.35435 0 4.12174 0C1.88912 0 0 2.07672 0 4.53103C0 6.98534 1.88912 9.06206 4.12174 9.06206C6.35435 9.06206 8.24347 6.98534 8.24347 4.53103Z" fill="#3D405B"/>
<path d="M78.4849 192.38C78.4849 194.835 80.374 196.911 82.6066 196.911C84.8392 196.911 86.7284 194.835 86.7284 192.38C86.7284 189.926 84.8392 187.849 82.6066 187.849C80.374 187.849 78.4849 189.737 78.4849 192.38Z" fill="#3D405B"/>
<path d="M82.7784 175.955C85.0547 175.955 86.9001 173.927 86.9001 171.424C86.9001 168.922 85.0547 166.893 82.7784 166.893C80.502 166.893 78.6566 168.922 78.6566 171.424C78.6566 173.927 80.502 175.955 82.7784 175.955Z" fill="#3D405B"/>
<path d="M86.9001 150.657C86.9001 148.203 85.011 146.126 82.7784 146.126C80.5457 146.126 78.6566 148.203 78.6566 150.657C78.6566 153.111 80.5457 155.188 82.7784 155.188C85.011 155.188 86.9001 153.111 86.9001 150.657Z" fill="#3D405B"/>
<path d="M82.7784 134.232C85.0547 134.232 86.9001 132.203 86.9001 129.701C86.9001 127.199 85.0547 125.17 82.7784 125.17C80.502 125.17 78.6566 127.199 78.6566 129.701C78.6566 132.203 80.502 134.232 82.7784 134.232Z" fill="#3D405B"/>
<path d="M82.7784 113.276C85.0547 113.276 86.9001 111.247 86.9001 108.745C86.9001 106.243 85.0547 104.214 82.7784 104.214C80.502 104.214 78.6566 106.243 78.6566 108.745C78.6566 111.247 80.502 113.276 82.7784 113.276Z" fill="#3D405B"/>
<path d="M86.9001 87.9777C86.9001 85.5234 85.011 83.4467 82.7784 83.4467C80.5457 83.4467 78.6566 85.5234 78.6566 87.9777C78.6566 90.432 80.5457 92.5087 82.7784 92.5087C85.011 92.5087 86.9001 90.432 86.9001 87.9777Z" fill="#3D405B"/>
<path d="M82.7784 71.5527C85.0547 71.5527 86.9001 69.5241 86.9001 67.0216C86.9001 64.5192 85.0547 62.4906 82.7784 62.4906C80.502 62.4906 78.6566 64.5192 78.6566 67.0216C78.6566 69.5241 80.502 71.5527 82.7784 71.5527Z" fill="#3D405B"/>
<path d="M67.15 192.38C67.15 189.926 65.2609 187.849 63.0283 187.849C60.7957 187.849 58.9066 189.926 58.9066 192.38C58.9066 194.835 60.7957 196.911 63.0283 196.911C65.2609 196.911 67.15 194.835 67.15 192.38Z" fill="#3D405B"/>
<path d="M63.0283 175.955C65.3047 175.955 67.15 173.927 67.15 171.424C67.15 168.922 65.3047 166.893 63.0283 166.893C60.7519 166.893 58.9066 168.922 58.9066 171.424C58.9066 173.927 60.7519 175.955 63.0283 175.955Z" fill="#3D405B"/>
<path d="M67.15 150.657C67.15 148.203 65.2609 146.126 63.0283 146.126C60.7957 146.126 58.9066 148.203 58.9066 150.657C58.9066 153.111 60.7957 155.188 63.0283 155.188C65.2609 155.188 67.15 153.111 67.15 150.657Z" fill="#3D405B"/>
<path d="M63.0283 134.232C65.3047 134.232 67.15 132.203 67.15 129.701C67.15 127.199 65.3047 125.17 63.0283 125.17C60.7519 125.17 58.9066 127.199 58.9066 129.701C58.9066 132.203 60.7519 134.232 63.0283 134.232Z" fill="#3D405B"/>
<path d="M63.0283 113.276C65.3047 113.276 67.15 111.247 67.15 108.745C67.15 106.243 65.3047 104.214 63.0283 104.214C60.7519 104.214 58.9066 106.243 58.9066 108.745C58.9066 111.247 60.7519 113.276 63.0283 113.276Z" fill="#3D405B"/>
<path d="M67.15 87.9777C67.15 85.5234 65.2609 83.4467 63.0283 83.4467C60.7957 83.4467 58.9066 85.5234 58.9066 87.9777C58.9066 90.432 60.7957 92.5087 63.0283 92.5087C65.2609 92.5087 67.15 90.432 67.15 87.9777Z" fill="#3D405B"/>
<path d="M63.0283 71.5527C65.3047 71.5527 67.15 69.5241 67.15 67.0216C67.15 64.5192 65.3047 62.4906 63.0283 62.4906C60.7519 62.4906 58.9066 64.5192 58.9066 67.0216C58.9066 69.5241 60.7519 71.5527 63.0283 71.5527Z" fill="#3D405B"/>
<path d="M47.5718 192.38C47.5718 189.926 45.6827 187.849 43.4501 187.849C41.2175 187.849 39.3284 189.926 39.3284 192.38C39.3284 194.835 41.2175 196.911 43.4501 196.911C45.6827 196.911 47.5718 194.835 47.5718 192.38Z" fill="#3D405B"/>
<path d="M47.5718 171.424C47.5718 168.97 45.6827 166.893 43.4501 166.893C41.2175 166.893 39.3284 168.97 39.3284 171.424C39.3284 173.879 41.2175 175.955 43.4501 175.955C45.6827 175.955 47.5718 174.067 47.5718 171.424Z" fill="#3D405B"/>
<path d="M47.5718 150.657C47.5718 148.203 45.6827 146.126 43.4501 146.126C41.2175 146.126 39.3284 148.203 39.3284 150.657C39.3284 153.111 41.2175 155.188 43.4501 155.188C45.6827 155.188 47.5718 153.111 47.5718 150.657Z" fill="#3D405B"/>
<path d="M47.5718 129.701C47.5718 127.247 45.6827 125.17 43.4501 125.17C41.2175 125.17 39.3284 127.247 39.3284 129.701C39.3284 132.155 41.2175 134.232 43.4501 134.232C45.6827 134.232 47.5718 132.155 47.5718 129.701Z" fill="#3D405B"/>
<path d="M47.5718 108.745C47.5718 106.291 45.6827 104.214 43.4501 104.214C41.2175 104.214 39.3284 106.291 39.3284 108.745C39.3284 111.199 41.2175 113.276 43.4501 113.276C45.6827 113.465 47.5718 111.388 47.5718 108.745Z" fill="#3D405B"/>
<path d="M47.5718 87.9777C47.5718 85.5234 45.6827 83.4467 43.4501 83.4467C41.2175 83.4467 39.3284 85.5234 39.3284 87.9777C39.3284 90.432 41.2175 92.5087 43.4501 92.5087C45.6827 92.5087 47.5718 90.432 47.5718 87.9777Z" fill="#3D405B"/>
<path d="M47.5718 67.0216C47.5718 64.5673 45.6827 62.4906 43.4501 62.4906C41.2175 62.4906 39.3284 64.5673 39.3284 67.0216C39.3284 69.4759 41.2175 71.5527 43.4501 71.5527C45.6827 71.7415 47.5718 69.6647 47.5718 67.0216Z" fill="#3D405B"/>
<path d="M27.8218 192.38C27.8218 189.926 25.9327 187.849 23.7001 187.849C21.4675 187.849 19.5784 189.926 19.5784 192.38C19.5784 194.835 21.4675 196.911 23.7001 196.911C25.9327 196.911 27.8218 194.835 27.8218 192.38Z" fill="#3D405B"/>
<path d="M27.8218 171.424C27.8218 168.97 25.9327 166.893 23.7001 166.893C21.4675 166.893 19.5784 168.97 19.5784 171.424C19.5784 173.879 21.4675 175.955 23.7001 175.955C25.9327 175.955 27.8218 174.067 27.8218 171.424Z" fill="#3D405B"/>
<path d="M27.8218 150.657C27.8218 148.203 25.9327 146.126 23.7001 146.126C21.4675 146.126 19.5784 148.203 19.5784 150.657C19.5784 153.111 21.4675 155.188 23.7001 155.188C25.9327 155.188 27.8218 153.111 27.8218 150.657Z" fill="#3D405B"/>
<path d="M27.8218 129.701C27.8218 127.247 25.9327 125.17 23.7001 125.17C21.4675 125.17 19.5784 127.247 19.5784 129.701C19.5784 132.155 21.4675 134.232 23.7001 134.232C25.9327 134.232 27.8218 132.155 27.8218 129.701Z" fill="#3D405B"/>
<path d="M27.8218 108.745C27.8218 106.291 25.9327 104.214 23.7001 104.214C21.4675 104.214 19.5784 106.291 19.5784 108.745C19.5784 111.199 21.4675 113.276 23.7001 113.276C25.9327 113.465 27.8218 111.388 27.8218 108.745Z" fill="#3D405B"/>
<path d="M27.8218 87.9777C27.8218 85.5234 25.9327 83.4467 23.7001 83.4467C21.4675 83.4467 19.5784 85.5234 19.5784 87.9777C19.5784 90.432 21.4675 92.5087 23.7001 92.5087C25.9327 92.5087 27.8218 90.432 27.8218 87.9777Z" fill="#3D405B"/>
<path d="M27.8218 67.0216C27.8218 64.5673 25.9327 62.4906 23.7001 62.4906C21.4675 62.4906 19.5784 64.5673 19.5784 67.0216C19.5784 69.4759 21.4675 71.5527 23.7001 71.5527C25.9327 71.7415 27.8218 69.6647 27.8218 67.0216Z" fill="#3D405B"/>
<path d="M8.24347 192.38C8.24347 189.926 6.35435 187.849 4.12174 187.849C1.88912 187.849 0 189.926 0 192.38C0 194.835 1.88912 196.911 4.12174 196.911C6.35435 196.911 8.24347 194.835 8.24347 192.38Z" fill="#3D405B"/>
<path d="M8.24347 171.424C8.24347 168.97 6.35435 166.893 4.12174 166.893C1.88912 166.893 0 168.97 0 171.424C0 173.879 1.88912 175.955 4.12174 175.955C6.35435 175.955 8.24347 174.067 8.24347 171.424Z" fill="#3D405B"/>
<path d="M8.24347 150.657C8.24347 148.203 6.35435 146.126 4.12174 146.126C1.88912 146.126 0 148.203 0 150.657C0 153.111 1.88912 155.188 4.12174 155.188C6.35435 155.188 8.24347 153.111 8.24347 150.657Z" fill="#3D405B"/>
<path d="M8.24347 129.701C8.24347 127.247 6.35435 125.17 4.12174 125.17C1.88912 125.17 0 127.247 0 129.701C0 132.155 1.88912 134.232 4.12174 134.232C6.35435 134.232 8.24347 132.155 8.24347 129.701Z" fill="#3D405B"/>
<path d="M8.24347 108.745C8.24347 106.291 6.35435 104.214 4.12174 104.214C1.88912 104.214 0 106.291 0 108.745C0 111.199 1.88912 113.276 4.12174 113.276C6.35435 113.276 8.24347 111.388 8.24347 108.745Z" fill="#3D405B"/>
<path d="M8.24347 87.9777C8.24347 85.5234 6.35435 83.4467 4.12174 83.4467C1.88912 83.4467 0 85.5234 0 87.9777C0 90.432 1.88912 92.5087 4.12174 92.5087C6.35435 92.5087 8.24347 90.432 8.24347 87.9777Z" fill="#3D405B"/>
<path d="M8.24347 67.0216C8.24347 64.5673 6.35435 62.4906 4.12174 62.4906C1.88912 62.4906 0 64.5673 0 67.0216C0 69.4759 1.88912 71.5527 4.12174 71.5527C6.35435 71.5527 8.24347 69.6647 8.24347 67.0216Z" fill="#3D405B"/>
</svg>
