<svg id="visual" viewBox="0 0 900 600" width="900" height="600" xmlns="http://www.w3.org/2000/svg" xmlns:xlink="http://www.w3.org/1999/xlink" version="1.1"><rect x="0" y="0" width="900" height="600" fill="#001220"></rect><path d="M0 379L21.5 375.5C43 372 86 365 128.8 362.8C171.7 360.7 214.3 363.3 257.2 378C300 392.7 343 419.3 385.8 418.5C428.7 417.7 471.3 389.3 514.2 385.2C557 381 600 401 642.8 412.5C685.7 424 728.3 427 771.2 416.7C814 406.3 857 382.7 878.5 370.8L900 359L900 601L878.5 601C857 601 814 601 771.2 601C728.3 601 685.7 601 642.8 601C600 601 557 601 514.2 601C471.3 601 428.7 601 385.8 601C343 601 300 601 257.2 601C214.3 601 171.7 601 128.8 601C86 601 43 601 21.5 601L0 601Z" fill="#fa7268"></path><path d="M0 463L21.5 454.7C43 446.3 86 429.7 128.8 418.2C171.7 406.7 214.3 400.3 257.2 399C300 397.7 343 401.3 385.8 415C428.7 428.7 471.3 452.3 514.2 457.2C557 462 600 448 642.8 438.5C685.7 429 728.3 424 771.2 430.2C814 436.3 857 453.7 878.5 462.3L900 471L900 601L878.5 601C857 601 814 601 771.2 601C728.3 601 685.7 601 642.8 601C600 601 557 601 514.2 601C471.3 601 428.7 601 385.8 601C343 601 300 601 257.2 601C214.3 601 171.7 601 128.8 601C86 601 43 601 21.5 601L0 601Z" fill="#ef5f67"></path><path d="M0 453L21.5 453.7C43 454.3 86 455.7 128.8 462.2C171.7 468.7 214.3 480.3 257.2 487.2C300 494 343 496 385.8 495.5C428.7 495 471.3 492 514.2 483.5C557 475 600 461 642.8 452.8C685.7 444.7 728.3 442.3 771.2 449.2C814 456 857 472 878.5 480L900 488L900 601L878.5 601C857 601 814 601 771.2 601C728.3 601 685.7 601 642.8 601C600 601 557 601 514.2 601C471.3 601 428.7 601 385.8 601C343 601 300 601 257.2 601C214.3 601 171.7 601 128.8 601C86 601 43 601 21.5 601L0 601Z" fill="#e34c67"></path><path d="M0 530L21.5 524.3C43 518.7 86 507.3 128.8 499.3C171.7 491.3 214.3 486.7 257.2 490.3C300 494 343 506 385.8 512.2C428.7 518.3 471.3 518.7 514.2 521.2C557 523.7 600 528.3 642.8 524.2C685.7 520 728.3 507 771.2 501.3C814 495.7 857 497.3 878.5 498.2L900 499L900 601L878.5 601C857 601 814 601 771.2 601C728.3 601 685.7 601 642.8 601C600 601 557 601 514.2 601C471.3 601 428.7 601 385.8 601C343 601 300 601 257.2 601C214.3 601 171.7 601 128.8 601C86 601 43 601 21.5 601L0 601Z" fill="#d53867"></path><path d="M0 551L21.5 552C43 553 86 555 128.8 556.2C171.7 557.3 214.3 557.7 257.2 559.2C300 560.7 343 563.3 385.8 561.7C428.7 560 471.3 554 514.2 554.5C557 555 600 562 642.8 562.2C685.7 562.3 728.3 555.7 771.2 555.5C814 555.3 857 561.7 878.5 564.8L900 568L900 601L878.5 601C857 601 814 601 771.2 601C728.3 601 685.7 601 642.8 601C600 601 557 601 514.2 601C471.3 601 428.7 601 385.8 601C343 601 300 601 257.2 601C214.3 601 171.7 601 128.8 601C86 601 43 601 21.5 601L0 601Z" fill="#c62368"></path></svg>